<?xml version="1.0" encoding="UTF-8" standalone="no"?>
<!-- Created with Inkscape (http://www.inkscape.org/) -->

<svg
   width="89mm"
   height="89mm"
   viewBox="0 0 89 89"
   version="1.1"
   id="svg1"
   xml:space="preserve"
   inkscape:version="1.3.2 (091e20e, 2023-11-25, custom)"
   sodipodi:docname="Adesivo Elettra.svg"
   inkscape:export-filename="Adesivo Elettra 85mm.pdf"
   inkscape:export-xdpi="96"
   inkscape:export-ydpi="96"
   xmlns:inkscape="http://www.inkscape.org/namespaces/inkscape"
   xmlns:sodipodi="http://sodipodi.sourceforge.net/DTD/sodipodi-0.dtd"
   xmlns="http://www.w3.org/2000/svg"
   xmlns:svg="http://www.w3.org/2000/svg"><sodipodi:namedview
     id="namedview1"
     pagecolor="#ffffff"
     bordercolor="#000000"
     borderopacity="0.25"
     inkscape:showpageshadow="2"
     inkscape:pageopacity="0.0"
     inkscape:pagecheckerboard="0"
     inkscape:deskcolor="#d1d1d1"
     inkscape:document-units="mm"
     inkscape:zoom="1"
     inkscape:cx="-61"
     inkscape:cy="193.5"
     inkscape:window-width="1536"
     inkscape:window-height="793"
     inkscape:window-x="-8"
     inkscape:window-y="-8"
     inkscape:window-maximized="1"
     inkscape:current-layer="layer1" /><defs
     id="defs1"><style
       id="style1">.cls-1{fill:#151722;}</style></defs><g
     inkscape:label="Livello 1"
     inkscape:groupmode="layer"
     id="layer1"><g
       id="g1"
       inkscape:export-filename="..\..\..\OneDrive\Desktop\g1.svg"
       inkscape:export-xdpi="96"
       inkscape:export-ydpi="96"><g
         transform="matrix(0.01188872,0,0,-0.01188872,6.1811964,64.901427)"
         fill="#000000"
         stroke="none"
         id="g5"
         style="stroke-width:2.96733"><path
           d="m 2385,3104 c -16,-2 -79,-9 -140,-14 -235,-23 -433,-58 -655,-116 -134,-36 -397,-127 -414,-144 -5,-5 3,-12 20,-17 39,-10 244,-10 320,0 l 61,9 19,-62 c 10,-34 24,-64 30,-67 6,-2 91,23 190,56 215,72 363,111 422,111 34,0 48,-6 67,-26 52,-56 21,-131 -61,-153 -279,-75 -534,-157 -555,-178 -11,-11 120,-413 134,-413 5,0 64,22 131,49 528,215 1203,422 1791,549 228,50 573,112 621,112 13,0 24,5 24,10 0,6 -4,10 -9,10 -9,0 -186,36 -341,70 -52,12 -115,25 -140,30 -25,5 -121,25 -215,45 -93,20 -242,51 -330,70 -88,18 -194,41 -235,50 -60,14 -137,18 -390,20 -173,2 -328,1 -345,-1 z"
           id="path1-7"
           style="stroke-width:2.96733" /><path
           d="m 5565,2800 c -324,-18 -689,-62 -1110,-136 -218,-39 -374,-71 -580,-119 -816,-189 -1569,-428 -2405,-760 -232,-93 -727,-302 -890,-378 -41,-19 -105,-48 -142,-65 l -68,-31 v -245 c 0,-229 1,-246 18,-246 10,0 101,42 202,93 364,184 719,280 1142,308 325,21 634,-12 1023,-110 410,-103 698,-159 1025,-198 206,-25 704,-24 879,0 208,30 415,77 438,100 6,6 83,140 169,297 86,157 192,348 234,425 43,77 114,208 160,290 45,83 95,173 110,200 15,28 64,115 107,195 44,80 108,196 143,258 34,62 59,116 56,119 -10,10 -341,12 -511,3 z m -460,-476 c -37,-93 -75,-191 -85,-217 -13,-35 -15,-49 -7,-53 7,-2 90,-5 185,-6 l 173,-3 -92,-120 c -355,-460 -462,-596 -466,-591 -3,2 21,69 52,148 59,148 115,296 115,304 0,2 -81,4 -180,4 -110,0 -180,4 -180,10 0,5 71,101 158,212 87,112 209,270 272,352 63,82 115,145 117,140 2,-6 -26,-86 -62,-180 z M 3470,2088 c 78,-40 111,-119 76,-186 -60,-116 -222,-117 -281,-1 -38,73 5,167 90,197 46,16 67,14 115,-10 z m -480,-147 c 137,-72 85,-271 -70,-271 -59,0 -110,28 -137,76 -28,49 -29,86 -2,134 41,73 136,101 209,61 z m -505,-132 c 31,-8 56,-24 80,-50 29,-33 35,-46 35,-85 0,-61 -31,-111 -84,-135 -50,-23 -76,-24 -124,-4 -83,35 -116,104 -87,180 19,51 41,72 92,91 47,16 36,16 88,3 z"
           id="path2"
           style="stroke-width:2.96733" /><path
           d="M 1830,1113 C 1362,1100 896,969 510,740 445,702 388,665 384,658 c -5,-8 -2,-9 12,-3 70,29 291,99 409,129 633,159 1250,139 1981,-65 325,-90 465,-121 714,-156 181,-25 704,-25 880,0 394,56 729,167 1010,337 168,101 382,272 245,196 -71,-40 -262,-121 -378,-160 -324,-110 -627,-156 -1022,-156 -450,0 -822,54 -1463,211 -257,63 -345,81 -482,99 -104,14 -345,26 -460,23 z"
           id="path3"
           style="stroke-width:2.96733" /><path
           d="m 2020,753 c 0,-18 567,-139 695,-148 l 70,-5 -45,15 c -108,36 -378,95 -545,120 -60,8 -125,18 -142,21 -18,3 -33,1 -33,-3 z"
           id="path4"
           style="stroke-width:2.96733" /><path
           d="M 1220,714 C 1020,687 779,615 615,533 514,482 408,419 414,413 c 2,-3 51,11 108,31 234,80 445,116 723,123 309,8 543,-25 905,-126 317,-89 504,-116 800,-115 222,0 357,16 535,61 55,13 110,27 123,30 43,10 22,21 -55,28 -43,4 -130,15 -193,26 -65,10 -167,19 -235,19 -269,1 -645,57 -1015,150 -191,49 -250,61 -370,76 -142,17 -381,17 -520,-2 z"
           id="path5"
           style="stroke-width:2.96733" /></g><path
         style="fill:#000000;fill-opacity:1;stroke-width:1"
         d="m 19.06,17.492996 v -3.818965 h 2.597371 2.59737 v 0.770909 0.770909 l -1.132643,5.2e-5 -1.132643,5.1e-5 -0.585841,0.01557 -0.585839,0.01557 -0.0281,0.01737 -0.0281,0.01737 0.0016,0.693707 0.0016,0.693707 0.02639,0.02642 0.02639,0.02642 1.072183,0.01515 1.072182,0.01514 0.539637,0.0026 0.539636,0.0026 v 0.735328 0.735329 l -1.571467,0.0024 -1.57147,0.0024 -0.05929,0.01648 -0.05931,0.01648 -0.0063,0.728337 -0.0063,0.728336 h 1.743783 1.743784 v 0.79463 0.794629 H 21.657371 19.06 Z m 7.305846,0 v -3.818965 h 0.840502 0.8405 l 0.0075,2.951998 0.0075,2.951997 0.03083,0.03083 0.03083,0.03083 1.688884,0.01187 1.688883,0.01187 0.0063,0.82428 0.0063,0.824279 h -2.573958 -2.573958 z m 6.902601,0 v -3.818965 h 2.609231 2.60923 v 0.767206 0.767205 l -0.359574,0.01557 -0.359575,0.01557 h -1.383865 -1.383867 v 0.747189 0.747189 h 1.62484 1.624839 v 0.747188 0.747189 h -1.624839 -1.62484 v 0.747189 0.747189 h 1.743441 1.74344 v 0.79463 0.794629 h -2.60923 -2.609231 z m 9.048828,3.789619 -0.01102,-0.02995 -0.0061,-2.934203 -0.0061,-2.934204 -0.03082,-0.03083 -0.03082,-0.03083 -1.030971,-0.0081 -1.030971,-0.0081 0.0063,-0.810282 0.0063,-0.810282 h 2.976896 2.976895 l 0.0063,0.810282 0.0063,0.810282 -1.030972,0.0081 -1.030969,0.0081 -0.03082,0.03083 -0.03082,0.03083 -0.01187,2.957924 -0.01187,2.957922 -0.836767,0.0063 -0.836769,0.0063 z m 7.267961,-2.313031 -0.0027,-2.342378 -0.01509,-0.632591 -0.0151,-0.63259 -0.01976,-0.01972 -0.01976,-0.01972 -1.029872,-0.0081 -1.02987,-0.0081 v -0.816198 -0.816214 h 2.988755 2.988754 v 0.814642 0.814642 l -1.049028,0.01696 -1.049031,0.01696 -0.007,0.007 -0.007,0.007 -0.01526,2.980396 -0.01526,2.980395 H 50.438018 49.588 Z m 5.545402,2.326563 -0.01577,-0.01577 v -3.789931 -3.789892 l 0.01779,-0.0093 0.01779,-0.0093 2.051803,0.01852 2.051806,0.01852 0.09487,0.02318 0.09487,0.02318 0.130457,0.03344 0.130456,0.03344 0.189762,0.09621 0.189762,0.09621 0.152352,0.112302 0.152351,0.112302 0.109409,0.109706 0.109409,0.109706 0.139378,0.188783 0.139377,0.188782 0.07679,0.167021 0.07679,0.167022 0.03027,0.106741 0.03027,0.106741 0.02139,0.02834 0.02139,0.02835 0.02454,0.256298 0.02454,0.256299 -0.0134,0.521846 -0.0134,0.521846 -0.05873,0.169125 -0.05873,0.169125 -0.08797,0.174819 -0.08797,0.174819 -0.130642,0.173694 -0.130643,0.173694 -0.156711,0.124982 -0.15671,0.124982 -0.109358,0.07378 -0.109358,0.07378 -0.238154,0.09602 -0.238153,0.09602 h -0.04691 -0.04689 l -0.08516,0.03558 -0.08516,0.03558 -0.06599,3.63e-4 -0.06599,3.64e-4 -0.03448,0.02181 -0.03448,0.02181 0.03127,0.05844 0.03128,0.05844 0.275988,0.306628 0.27599,0.306628 0.616727,0.673273 0.616728,0.673273 0.209473,0.222405 0.209475,0.222405 -0.0078,0.0068 -0.0078,0.0068 -1.0466,0.01679 -1.0466,0.01679 -1.03773,-1.170075 -1.037732,-1.170074 -0.08129,-0.07845 -0.08129,-0.07846 -0.08687,0.0073 -0.08687,0.0073 -0.01628,0.0593 -0.01628,0.0593 -0.0024,1.180084 -0.0024,1.180083 h -0.849976 -0.849978 z m 3.530368,-4.015833 0.166039,-0.01999 0.08439,-0.02246 0.08439,-0.02246 0.129082,-0.08857 0.129083,-0.08858 0.08784,-0.137622 0.08784,-0.137622 0.01628,-0.0679 0.01628,-0.0679 0.02235,-0.02845 0.02235,-0.02845 -0.0078,-0.303633 -0.0078,-0.303634 -0.07364,-0.155402 -0.07364,-0.155403 -0.124164,-0.122214 -0.124164,-0.122214 -0.11024,-0.05337 -0.11024,-0.05337 -0.982823,-0.01006 -0.982826,-0.01006 -0.03155,0.04314 -0.03155,0.04314 v 0.882012 0.882012 l 0.01459,0.07291 0.01458,0.07291 0.03879,0.01033 0.03879,0.01033 0.77091,0.0013 0.770909,0.0013 z m 3.559889,3.968784 0.01577,-0.0676 0.05641,-0.144177 0.05641,-0.144177 v -0.03511 -0.03512 l 0.03482,-0.04605 0.03482,-0.04605 7.54e-4,-0.05102 7.55e-4,-0.05102 0.05907,-0.126894 0.05907,-0.126895 2.33e-4,-0.05196 2.32e-4,-0.05197 0.02373,-0.01459 0.02373,-0.01459 1.46e-4,-0.04011 1.46e-4,-0.04011 0.03543,-0.06794 0.03543,-0.06794 v -0.05519 -0.05519 l 0.02373,-0.01459 0.02373,-0.01459 v -0.05337 -0.05337 l 0.03482,-0.04605 0.03482,-0.04605 7.54e-4,-0.05454 7.55e-4,-0.05454 0.03182,-0.06406 0.03182,-0.06406 0.112733,-0.343944 0.112733,-0.343943 0.03336,-0.06715 0.03334,-0.06715 v -0.03662 -0.03662 l 0.0569,-0.133428 0.0569,-0.133428 0.04179,-0.142321 0.04179,-0.142322 0.01793,-0.03558 0.01793,-0.03558 0.04136,-0.142322 0.04137,-0.142322 0.01762,-0.03558 0.01762,-0.03558 0.09498,-0.284644 0.09498,-0.284643 0.05196,-0.154182 0.05197,-0.154181 0.03323,-0.06715 0.03323,-0.06715 v -0.04316 -0.04316 l 0.05907,-0.126886 0.05907,-0.126887 2.32e-4,-0.05197 2.31e-4,-0.05197 0.02373,-0.01465 0.02373,-0.01465 1.46e-4,-0.04011 1.46e-4,-0.04011 0.03543,-0.06794 0.03543,-0.06794 v -0.05519 -0.05519 l 0.02373,-0.01465 0.02373,-0.01465 v -0.03652 -0.03653 l 0.03341,-0.07475 0.03341,-0.07475 0.01238,-0.0593 0.01238,-0.0593 0.131779,-0.367665 0.131779,-0.367664 3.07e-4,-0.03698 3.06e-4,-0.03698 0.03482,-0.04605 0.03482,-0.04604 7.55e-4,-0.04447 7.55e-4,-0.04447 0.0569,-0.133428 0.0569,-0.133428 0.04103,-0.142321 0.04103,-0.142322 0.02067,-0.02253 0.02067,-0.02253 v -0.06642 -0.06642 h 1.24241 1.24241 l 0.02354,0.02965 0.02354,0.02965 0.02846,0.09488 0.02846,0.09488 0.01852,0.04744 0.01852,0.04744 0.02999,0.08302 0.02999,0.08302 0.01187,0.06552 0.01187,0.06552 0.02098,0.01297 0.02098,0.01297 v 0.04699 0.04699 l 0.04684,0.09183 0.04684,0.09183 0.02268,0.09106 0.02268,0.09106 0.04013,0.106741 0.04013,0.106742 0.01937,0.07116 0.01937,0.07116 0.09842,0.260923 0.09842,0.260923 0.01306,0.07116 0.01306,0.07116 0.03233,0.04679 0.03233,0.04679 v 0.05262 0.05262 l 0.02373,0.01465 0.02373,0.01465 7.55e-4,0.06383 7.55e-4,0.06383 0.03482,0.04604 0.03482,0.04604 v 0.05337 0.05337 l 0.02373,0.01465 0.02373,0.01465 2.32e-4,0.05197 2.31e-4,0.05197 0.05907,0.126886 0.05907,0.126887 7.55e-4,0.05101 7.54e-4,0.05102 0.03482,0.04604 0.03482,0.04604 v 0.05337 0.05337 l 0.02373,0.01465 0.02373,0.01465 v 0.04152 0.04152 l 0.108985,0.295095 0.108985,0.295095 0.0194,0.07116 0.0194,0.07116 0.02936,0.08302 0.02936,0.08302 0.01662,0.04744 0.01662,0.04744 0.02998,0.08302 0.02999,0.08302 0.01187,0.06552 0.01187,0.06552 0.02098,0.01297 0.02098,0.01297 5.23e-4,0.05197 5.2e-4,0.05197 0.04966,0.106741 0.04966,0.106742 0.01935,0.07116 0.01935,0.07116 0.04011,0.106741 0.04011,0.106741 0.01937,0.07117 0.01937,0.07116 0.09842,0.260923 0.09842,0.260924 0.01306,0.07116 0.01306,0.07116 0.03233,0.04679 0.03233,0.04679 v 0.05263 0.05263 l 0.02373,0.01459 0.02373,0.01459 7.55e-4,0.06384 7.53e-4,0.06384 0.03484,0.04605 0.03482,0.04605 v 0.05337 0.05337 l 0.02373,0.01459 0.02373,0.01459 2.3e-4,0.05197 2.33e-4,0.05197 0.05907,0.126894 0.05907,0.126895 7.55e-4,0.05102 7.54e-4,0.05101 0.03482,0.04605 0.03482,0.04605 v 0.05001 0.05001 l 0.0277,0.0277 0.02768,0.02768 -0.04547,0.01857 -0.04547,0.01857 h -0.873835 -0.873807 l -0.04535,-0.056 -0.04535,-0.056 v -0.05527 -0.05527 l -0.0219,-0.01357 -0.0219,-0.01357 -0.0156,-0.07681 -0.0156,-0.07681 -0.02468,-0.08302 -0.02469,-0.08302 -0.01699,-0.03558 -0.01699,-0.03558 -0.04308,-0.142329 -0.04308,-0.142328 -0.09993,-0.296503 -0.09993,-0.296505 h -1.444149 -1.44415 l -0.06523,0.01825 -0.06523,0.01825 v 0.03389 0.03389 l -0.156507,0.481584 -0.156507,0.481583 -0.01784,0.04744 -0.01784,0.04744 -0.02999,0.08302 -0.02998,0.08302 -0.01187,0.06589 -0.01187,0.06589 -0.05058,0.02853 -0.05059,0.02853 -0.896486,0.0088 -0.896487,0.0088 z m 4.812926,-3.019374 0.01458,-0.04604 -0.06046,-0.175155 -0.06046,-0.175154 v -0.04684 -0.04684 l -0.02067,-0.02254 -0.02067,-0.02253 -0.04138,-0.142321 -0.04138,-0.142322 -0.03283,-0.07475 -0.03283,-0.07475 3.19e-4,-0.02013 3.21e-4,-0.02013 -0.120569,-0.379524 -0.120569,-0.379525 -0.02208,-0.04119 -0.02208,-0.04119 -7.76e-4,-0.04183 -7.73e-4,-0.04183 -0.04318,-0.124999 -0.04318,-0.124997 -0.01526,-0.01535 -0.01526,-0.01535 v -0.05342 -0.05343 l -0.03379,-0.06715 -0.03378,-0.06715 -0.02978,-0.106741 -0.02978,-0.106741 -0.02235,-0.02965 -0.02235,-0.02965 H 66.059569 65.95635 l -0.03212,0.06523 -0.03212,0.06523 -0.06591,0.213482 -0.06591,0.213483 -0.02118,0.04119 -0.02118,0.04119 v 0.04323 0.04323 l -0.03482,0.04604 -0.03482,0.04605 -7.55e-4,0.06383 -7.55e-4,0.06383 -0.02373,0.01465 -0.02373,0.01465 v 0.0571 0.0571 l -0.03382,0.0779 -0.03382,0.0779 -0.122519,0.391385 -0.12252,0.391384 -0.01801,0.04744 -0.01801,0.04744 -0.02998,0.08302 -0.02999,0.08302 -0.01187,0.06552 -0.01187,0.06552 -0.02098,0.01298 -0.02098,0.01297 -1.46e-4,0.06383 -1.46e-4,0.06383 -0.03677,0.07051 -0.03677,0.07051 0.04145,0.0303 0.04145,0.03031 h 0.942679 0.942679 z"
         id="path33" /><g
         id="Layer_2"
         data-name="Layer 2"
         transform="matrix(0.123332,0,0,0.123332,15.643395,69.541706)"
         style="stroke-width:2.1453"><path
           class="cls-1"
           d="m 146,12.49 c 0,-1.44 -0.19,-1.83 -1.54,-1.92 l -6,-0.67 V 3.76 H 164 V 9.9 l -6.43,0.76 c -1.44,0.2 -1.53,0.39 -1.53,1.83 v 36.82 c 0,17.26 -9.69,25 -26.28,25 C 111.45,74.34 104,65.9 104,49 V 12.49 c 0,-1.44 -0.2,-1.83 -1.54,-1.92 l -6,-0.67 V 3.76 h 26.75 V 9.9 l -6.42,0.76 c -1.44,0.2 -1.53,0.39 -1.53,1.83 v 34.9 c 0,12.18 4.2,17.63 15.2,17.63 11,0 15.54,-4.51 15.54,-17.36 z"
           id="path1-78"
           style="fill:#000000;fill-opacity:1;stroke-width:2.1453" /><path
           class="cls-1"
           d="m 199.47,73.19 v -6 l 4.8,-0.58 c 1.34,-0.19 1.53,-0.77 1.53,-1.92 V 42.41 c 0,-5.76 -0.67,-10.55 -6.81,-10.55 -4.89,0 -10,2.68 -13.14,5 v 27.6 c 0,1.54 0.1,1.73 1.54,1.92 l 5.08,0.67 v 6.14 H 168.69 V 67 l 4.6,-0.57 c 1.34,-0.19 1.54,-0.48 1.54,-1.92 V 33.58 c 0,-1 -0.29,-1.72 -1.25,-2 l -5.28,-1.82 1,-6.14 h 14.2 l 0.76,5.27 0.39,0.1 c 5.37,-3.64 11,-6.33 17.93,-6.33 10.36,0 14.29,6.52 14.29,17.55 v 24.25 c 0,1.54 0.09,1.73 1.53,1.92 l 5.28,0.67 v 6.14 z"
           id="path2-1"
           style="fill:#000000;fill-opacity:1;stroke-width:2.1453" /><path
           class="cls-1"
           d="m 227.75,73.19 v -6 l 5.76,-0.77 c 1.34,-0.19 1.53,-0.48 1.53,-1.92 V 33.58 c 0,-1 -0.29,-1.72 -1.25,-2 l -5.27,-1.82 1,-6.14 h 16.59 v 40.84 c 0,1.54 0.1,1.73 1.53,1.92 l 5.66,0.67 v 6.14 z m 11.61,-59 c -4.61,0 -7.19,-2.59 -7.19,-7.19 0,-4.6 2.58,-7 7.19,-7 4.61,0 7.19,2.49 7.19,7 0,4.51 -2.69,7.21 -7.16,7.21 z"
           id="path3-5"
           style="fill:#000000;fill-opacity:1;stroke-width:2.1453" /><path
           class="cls-1"
           d="m 319.23,47.78 c -1.15,0.09 -1.53,0.38 -1.53,1.34 v 20.62 c -7.29,3.45 -16.88,4.6 -24.84,4.6 -26.18,0 -35.19,-15.44 -35.19,-36.06 0,-20.62 11.79,-35.77 36,-35.77 6.9,0 15.82,1.73 21.67,5.56 V 26.2 L 304.7,25.43 303.26,16.8 c -0.29,-1.34 -0.67,-1.72 -1.53,-1.92 a 35.63,35.63 0 0 0 -8.83,-1.24 c -12.37,0 -19.75,9.39 -19.75,24.45 0,15.82 6.71,25.22 20.42,25.22 a 52.34,52.34 0 0 0 8,-0.67 c 1.06,-0.19 1.54,-0.48 1.54,-1.73 V 48.35 h -10.72 l 1.35,-8.63 h 29.44 v 7.67 z"
           id="path4-9"
           style="fill:#000000;fill-opacity:1;stroke-width:2.1453" /><path
           class="cls-1"
           d="m 371.11,69.45 a 44.86,44.86 0 0 1 -19.66,4.89 c -18.51,0 -24.84,-11.51 -24.84,-26.47 0,-17.36 10.65,-25.6 23.78,-25.6 12.66,0 21.1,6.61 21.1,23.2 0,1.16 -0.09,4.51 -0.19,6.43 H 342 c 0.44,6.81 3.44,11.32 11.32,11.32 3.74,0 7.77,-0.87 14.29,-3.26 z M 357.3,42.79 c -0.1,-8.06 -3.26,-10.17 -7.19,-10.17 -4.13,0 -7.48,2.31 -8.06,10.17 z"
           id="path5-0"
           style="fill:#000000;fill-opacity:1;stroke-width:2.1453" /></g></g></g></svg>
